<?xml version="1.0" standalone="no"?>
<!DOCTYPE svg PUBLIC "-//W3C//DTD SVG 20010904//EN"
 "http://www.w3.org/TR/2001/REC-SVG-20010904/DTD/svg10.dtd">
<svg version="1.0" xmlns="http://www.w3.org/2000/svg"
 width="438.000000pt" height="800.000000pt" viewBox="0 0 438.000000 800.000000"
 preserveAspectRatio="xMidYMid meet">

<g transform="translate(0.000000,800.000000) scale(0.100000,-0.100000)"
fill="#000000" stroke="none">
<path d="M40 3995 l0 -3995 50 0 50 0 0 1100 0 1100 755 0 755 0 0 50 0 50
-755 0 -755 0 0 1470 0 1470 185 0 185 0 0 30 0 30 -185 0 -185 0 0 625 0 625
185 0 185 0 0 50 0 50 -185 0 -185 0 0 615 0 615 2070 0 2070 0 0 -615 0 -615
-1675 0 -1675 0 0 -50 0 -50 190 0 190 0 0 -625 0 -625 -185 0 -185 0 0 -30 0
-30 420 0 420 0 0 30 0 30 -180 0 -180 0 0 385 0 385 370 0 370 0 0 -415 0
-415 50 0 50 0 0 655 0 655 1010 0 1010 0 0 -1035 0 -1035 -500 0 -500 0 0
145 0 145 -560 0 -560 0 0 -175 0 -175 50 0 50 0 0 145 0 145 480 0 480 0 0
-145 0 -145 530 0 530 0 0 -755 0 -755 -1010 0 -1010 0 0 520 0 520 -50 0 -50
0 0 -875 0 -875 50 0 50 0 0 305 0 305 1055 0 1055 0 0 -1400 0 -1400 -40 0
-40 0 -3 1397 -2 1398 -3 -1402 -2 -1403 50 0 50 0 0 3995 0 3995 -2170 0
-2170 0 0 -3995z m4330 3320 l0 -665 -40 0 -40 0 0 620 0 620 -2080 0 -2080 0
0 -620 0 -620 -40 0 -40 0 0 665 0 665 2160 0 2160 0 0 -665z m-3870 -715 l0
-40 -185 0 -185 0 0 -2135 0 -2135 150 0 150 0 0 -40 0 -40 -190 0 -190 0 0
2215 0 2215 225 0 225 0 0 -40z m510 0 c0 -39 -1 -40 -35 -40 -34 0 -35 1 -35
40 0 39 1 40 35 40 34 0 35 -1 35 -40z m260 0 l0 -40 -125 0 -125 0 0 40 0 40
125 0 125 0 0 -40z m1630 0 l0 -40 -325 0 -325 0 0 -655 0 -655 -40 0 -40 0 0
655 0 655 -445 0 -445 0 0 40 0 40 810 0 810 0 0 -40z m910 0 l0 -40 -450 0
-450 0 0 40 0 40 450 0 450 0 0 -40z m560 -1870 l0 -1910 -275 0 -275 0 0 40
0 40 235 0 235 0 0 1830 0 1830 -235 0 -235 0 0 40 0 40 275 0 275 0 0 -1910z
m-2960 1170 l0 -650 -45 0 -45 0 0 650 0 650 45 0 45 0 0 -650z m750 435 l0
-215 -370 0 -370 0 0 215 0 215 370 0 370 0 0 -215z m0 -240 c0 -13 -48 -15
-370 -15 -322 0 -370 2 -370 15 0 13 48 15 370 15 322 0 370 -2 370 -15z
m-1660 -825 c0 -19 -7 -20 -180 -20 -173 0 -180 1 -180 20 0 19 7 20 180 20
173 0 180 -1 180 -20z m810 0 c0 -19 -7 -20 -180 -20 -173 0 -180 1 -180 20 0
19 7 20 180 20 173 0 180 -1 180 -20z m460 0 c0 -19 -7 -20 -175 -20 -168 0
-175 1 -175 20 0 19 7 20 175 20 168 0 175 -1 175 -20z m480 -675 l0 -165 -40
0 -40 0 0 165 0 165 40 0 40 0 0 -165z m1020 0 c0 -158 -1 -165 -20 -165 -19
0 -20 7 -20 145 l0 145 -485 0 c-478 0 -485 0 -485 20 0 20 7 20 505 20 l505
0 0 -165z m1010 -145 c0 -20 -7 -20 -500 -20 -493 0 -500 0 -500 20 0 20 7 20
500 20 493 0 500 0 500 -20z m-2030 -1030 l0 -520 325 0 325 0 0 -40 0 -40
-325 0 -325 0 0 -305 0 -305 -40 0 -40 0 0 865 0 865 40 0 40 0 0 -520z m1560
-560 l0 -40 -450 0 -450 0 0 40 0 40 450 0 450 0 0 -40z m-2470 -610 l0 -40
-450 0 -450 0 0 40 0 40 450 0 450 0 0 -40z m300 0 l0 -40 -145 0 -145 0 0 40
0 40 145 0 145 0 0 -40z m-1510 -1145 l0 -1095 -40 0 -40 0 0 1095 0 1095 40
0 40 0 0 -1095z"/>
</g>
</svg>
