<?xml version="1.0" standalone="no"?>
<!DOCTYPE svg PUBLIC "-//W3C//DTD SVG 20010904//EN"
 "http://www.w3.org/TR/2001/REC-SVG-20010904/DTD/svg10.dtd">
<svg version="1.0" xmlns="http://www.w3.org/2000/svg"
 width="920.000000pt" height="697.000000pt" viewBox="0 0 920.000000 697.000000"
 preserveAspectRatio="xMidYMid meet">

<g transform="translate(0.000000,697.000000) scale(0.100000,-0.100000)"
fill="#000000" stroke="none">
<path d="M2380 6557 l0 -224 23 1 22 1 6 -470 c5 -388 5 -354 3 193 l-3 662
2200 0 2199 0 0 -104 c0 -59 4 -108 10 -111 16 -10 13 -632 -2 -638 -8 -3 -6
-6 5 -6 16 -1 17 21 17 318 0 277 2 320 15 325 13 5 15 27 13 138 l-3 133
-2252 3 -2253 2 0 -223z"/>
<path d="M5357 6093 c-4 -3 -7 -28 -7 -55 0 -42 3 -48 21 -48 39 0 59 19 59
55 0 24 -6 38 -19 45 -23 12 -45 13 -54 3z m58 -32 c8 -26 -4 -51 -26 -51 -15
0 -19 7 -19 35 0 28 4 35 19 35 11 0 22 -8 26 -19z"/>
<path d="M5746 6084 c-23 -23 -20 -71 5 -84 32 -18 71 -4 67 23 -3 22 -38 38
-38 18 0 -6 7 -11 16 -11 14 0 14 -3 4 -15 -16 -19 -25 -19 -44 1 -20 20 -20
38 0 58 11 12 20 13 34 6 28 -15 38 -11 16 5 -25 19 -41 19 -60 -1z"/>
<path d="M5450 6045 c0 -25 5 -45 10 -45 6 0 10 20 10 45 0 25 -4 45 -10 45
-5 0 -10 -20 -10 -45z"/>
<path d="M5490 6039 c0 -27 4 -48 8 -45 5 3 7 20 5 38 l-4 33 25 -30 c14 -16
26 -34 26 -38 0 -5 5 -5 10 -2 6 3 10 26 10 51 0 24 -4 44 -10 44 -5 0 -10
-15 -10 -32 l0 -33 -21 33 c-12 17 -25 32 -30 32 -5 0 -9 -23 -9 -51z"/>
<path d="M5590 6045 c0 -25 5 -45 10 -45 6 0 10 20 10 45 0 25 -4 45 -10 45
-5 0 -10 -20 -10 -45z"/>
<path d="M5631 6038 c2 -52 2 -52 8 -13 l6 40 23 -38 c13 -20 28 -35 33 -31
12 7 12 94 -1 94 -5 0 -10 -15 -10 -32 l0 -33 -21 33 c-12 17 -25 32 -30 32
-5 0 -8 -24 -8 -52z"/>
<path d="M3060 5880 l0 -50 33 1 c23 1 26 3 10 6 -20 4 -23 11 -23 49 0 24 -4
44 -10 44 -5 0 -10 -22 -10 -50z"/>
<path d="M3140 5879 c0 -31 4 -48 10 -44 6 3 10 26 10 51 0 24 -4 44 -10 44
-5 0 -10 -23 -10 -51z"/>
<path d="M3175 5909 c10 -32 34 -79 41 -79 8 0 45 92 39 98 -2 3 -13 -15 -23
-39 l-19 -44 -12 37 c-14 42 -38 67 -26 27z"/>
<path d="M3270 5879 c0 -31 4 -48 10 -44 6 3 10 26 10 51 0 24 -4 44 -10 44
-5 0 -10 -23 -10 -51z"/>
<path d="M3311 5878 c2 -52 2 -52 8 -13 l6 40 23 -37 c13 -21 28 -38 33 -38 5
0 9 23 9 50 0 28 -4 50 -10 50 -5 0 -10 -15 -10 -32 l0 -33 -21 33 c-12 17
-25 32 -30 32 -5 0 -8 -24 -8 -52z"/>
<path d="M3421 5916 c-16 -19 -10 -66 10 -79 24 -15 69 0 69 23 0 14 -6 20
-22 19 -18 -1 -19 -2 -5 -6 14 -4 16 -8 6 -19 -26 -31 -66 -2 -55 41 5 18 13
25 31 25 14 0 25 -4 25 -10 0 -5 4 -10 10 -10 5 0 7 7 4 15 -8 19 -58 20 -73
1z"/>
<path d="M5381 5878 c1 -29 4 -43 6 -30 5 27 29 29 45 2 17 -27 32 -26 17 1
-7 15 -8 24 0 32 18 18 -6 47 -39 47 -30 0 -30 -1 -29 -52z m54 21 c0 -8 -10
-15 -22 -17 -22 -3 -32 16 -17 30 10 11 39 1 39 -13z"/>
<path d="M5492 5918 c-13 -13 -16 -57 -4 -74 23 -34 82 -12 82 31 0 44 -50 71
-78 43z m58 -18 c16 -30 3 -60 -25 -60 -18 0 -26 7 -31 25 -12 46 35 75 56 35z"/>
<path d="M5596 5908 c-9 -12 -16 -28 -16 -35 0 -15 36 -53 50 -53 17 0 50 39
50 59 0 25 -26 51 -50 51 -10 0 -26 -10 -34 -22z m52 3 c8 -5 12 -21 10 -37
-2 -23 -8 -29 -28 -29 -20 0 -26 6 -28 29 -3 25 10 46 28 46 3 0 11 -4 18 -9z"/>
<path d="M5697 5923 c-11 -10 -8 -93 3 -93 6 0 10 15 11 33 l1 32 10 -32 c12
-35 26 -43 33 -18 15 48 18 50 25 15 7 -32 7 -30 9 18 1 64 -16 67 -34 6 l-12
-39 -13 43 c-13 41 -20 49 -33 35z"/>
<path d="M6852 5830 c0 -14 2 -19 5 -12 2 6 2 18 0 25 -3 6 -5 1 -5 -13z"/>
<path d="M6858 5793 c7 -3 16 -2 19 1 4 3 -2 6 -13 5 -11 0 -14 -3 -6 -6z"/>
<path d="M6854 5480 c0 -168 2 -236 3 -152 2 83 2 221 0 305 -1 83 -3 15 -3
-153z"/>
<path d="M3192 5754 c-12 -8 -22 -25 -22 -38 0 -24 28 -56 48 -56 17 0 52 37
52 55 0 16 -34 55 -48 55 -4 0 -18 -7 -30 -16z m56 -35 c3 -30 -18 -52 -42
-43 -16 6 -23 54 -9 68 16 16 48 1 51 -25z"/>
<path d="M3296 5754 c-29 -28 -11 -94 25 -94 29 0 49 22 49 55 0 49 -42 71
-74 39z m62 -36 c4 -35 -29 -56 -52 -32 -18 17 -19 24 -10 49 4 10 16 15 33
13 20 -2 27 -9 29 -30z"/>
<path d="M3070 5715 c0 -25 5 -45 10 -45 6 0 10 9 10 20 0 26 17 25 41 -2 10
-13 18 -18 19 -11 0 6 -5 15 -10 18 -8 5 -7 11 1 21 19 23 3 44 -36 44 -35 0
-35 0 -35 -45z m65 20 c0 -5 -10 -11 -22 -13 -16 -2 -23 2 -23 13 0 11 7 15
23 13 12 -2 22 -7 22 -13z"/>
<path d="M3390 5709 c0 -27 4 -48 8 -45 5 3 7 19 4 37 -6 42 13 31 22 -13 7
-37 20 -29 34 22 l10 35 1 -43 c1 -27 5 -41 11 -37 15 9 9 95 -6 95 -7 0 -18
-17 -25 -37 l-13 -38 -9 38 c-14 57 -37 48 -37 -14z"/>
<path d="M2380 4745 l0 -634 38 -6 c124 -19 164 -30 229 -61 83 -39 166 -112
217 -188 37 -56 86 -187 86 -230 l0 -26 -270 0 c-233 0 -270 -2 -270 -15 0 -8
-7 -15 -15 -15 -13 0 -15 -74 -15 -603 l0 -604 23 1 22 1 3 -542 2 -543 -25 0
-25 0 0 -455 0 -455 2255 0 2255 0 0 2395 c0 1909 -3 2395 -12 2396 -7 0 -21
2 -30 4 -16 3 -18 -7 -18 -91 l0 -94 -380 0 -380 0 0 -25 0 -25 195 0 195 0 0
-513 0 -512 -83 -83 -82 -82 -548 0 -547 0 0 -155 0 -155 -230 0 -229 0 -3
-270 c-2 -149 -1 -270 2 -270 3 0 33 -5 68 -10 171 -28 308 -155 328 -303 l7
-47 -187 0 c-149 0 -190 -3 -202 -14 -11 -12 -14 -66 -14 -300 l0 -285 -27 -3
c-26 -3 -28 -7 -36 -68 -11 -87 -45 -158 -108 -225 -56 -59 -129 -101 -196
-111 l-43 -7 0 184 c0 101 -3 194 -6 207 -5 17 -14 22 -40 22 l-34 0 0 295 c0
256 -2 295 -15 295 -8 0 -15 5 -15 10 0 6 -70 10 -190 10 -104 0 -190 4 -190
8 0 5 7 33 16 63 30 101 97 185 187 230 51 27 131 49 175 49 l32 0 0 55 0 55
-910 0 -910 0 0 280 0 280 270 0 270 0 0 28 c0 15 -7 56 -15 91 -54 227 -245
402 -469 430 l-51 6 0 633 0 632 -27 0 -28 0 0 -635z m4450 -165 l0 -350 25 0
25 0 0 -211 0 -211 -25 4 -25 5 0 -193 0 -194 -807 2 -808 3 0 145 0 145 193
3 192 2 1 -22 2 -23 4 23 4 22 348 0 347 0 87 89 88 89 -1 313 -1 314 155 3
156 3 0 174 0 175 -154 0 c-148 0 -176 5 -161 30 4 6 75 10 181 10 l174 0 0
-350z m-56 135 l0 -160 -149 0 -150 0 0 155 c-1 85 1 158 3 163 2 4 69 6 150
5 l146 -3 0 -160z m-1726 -1477 l-3 -143 -127 -3 -128 -3 0 146 0 145 130 0
131 0 -3 -142z m62 -8 l0 -150 240 0 240 0 0 151 0 152 573 -6 c314 -4 592 -7
617 -7 l45 0 -2 -457 -3 -458 -1015 -3 -1015 -2 0 25 0 25 186 0 187 0 -7 51
c-20 147 -120 270 -262 320 -29 10 -65 19 -79 19 -25 0 -25 0 -25 95 l0 95
135 0 135 0 0 150 0 150 25 0 25 0 0 -150z m465 5 l0 -140 -225 0 -225 0 -3
129 c-1 72 0 136 2 143 4 11 51 13 228 11 l223 -3 0 -140z m-1377 -311 c3 -18
-5 -23 -52 -32 -162 -33 -297 -174 -313 -328 l-6 -54 187 0 186 0 -2 -1042 -3
-1043 -880 0 -880 0 0 1255 c-1 690 1 1258 3 1263 2 4 398 6 880 5 l877 -3 3
-21z m2630 -681 l-3 -147 -1015 0 -1015 0 -3 147 -3 147 1021 0 1021 0 -3
-147z m2 -458 l0 -255 23 3 22 2 3 -344 2 -343 -25 4 -25 5 0 -218 0 -219
-1290 0 -1290 0 0 725 0 725 25 0 25 0 0 -183 0 -183 58 6 c155 19 305 163
328 317 l6 43 49 0 49 0 0 85 0 85 1020 0 1020 0 0 -255z"/>
<path d="M6500 3885 c-13 -14 -20 -25 -16 -25 5 0 3 -7 -4 -15 -7 -8 -15 -13
-19 -10 -8 4 -116 -101 -116 -113 0 -4 -3 -6 -6 -5 -3 1 -19 -11 -35 -28 -23
-24 -26 -31 -14 -42 10 -10 11 -9 6 1 -8 14 12 45 24 37 4 -2 22 11 40 30 19
19 30 35 25 35 -5 0 4 13 20 30 15 16 31 27 35 25 4 -2 24 14 45 35 22 22 35
40 31 40 -5 0 -3 7 4 15 20 25 5 17 -20 -10z"/>
<path d="M6541 3908 c3 -2 40 -37 84 -78 l80 -75 -75 78 c-41 42 -79 77 -84
77 -5 0 -7 -1 -5 -2z"/>
<path d="M6583 3835 c26 -28 47 -55 47 -60 0 -5 -12 -23 -27 -39 l-28 -31 33
29 c17 17 32 35 32 41 0 6 -24 33 -52 60 l-53 50 48 -50z"/>
<path d="M6487 3730 c29 -30 54 -52 56 -50 1 3 -22 27 -53 55 l-55 49 52 -54z"/>
<path d="M6530 3764 c0 -17 22 -14 28 4 2 7 -3 12 -12 12 -9 0 -16 -7 -16 -16z"/>
<path d="M6460 3708 c24 -27 45 -48 47 -48 8 0 0 9 -44 50 l-48 45 45 -47z"/>
<path d="M6570 3623 l-125 -128 128 125 c118 116 132 130 124 130 -1 0 -58
-57 -127 -127z"/>
<path d="M6556 3710 c3 -14 11 -28 17 -32 7 -4 6 -12 -3 -25 -13 -17 -13 -17
4 -2 17 15 16 18 -4 50 -17 27 -20 29 -14 9z"/>
<path d="M5352 3655 c0 -16 2 -22 5 -12 2 9 2 23 0 30 -3 6 -5 -1 -5 -18z"/>
<path d="M6487 3620 c-30 -27 -61 -50 -68 -50 -7 0 -34 19 -59 43 l-45 42 45
-47 c24 -27 51 -48 59 -48 8 0 30 14 48 32 26 25 35 29 46 19 11 -9 17 -7 28
6 13 16 12 17 -3 4 -24 -18 -25 5 -1 31 32 35 4 17 -50 -32z"/>
<path d="M6410 3644 c0 -17 22 -14 28 4 2 7 -3 12 -12 12 -9 0 -16 -7 -16 -16z"/>
<path d="M5602 3630 c0 -14 2 -19 5 -12 2 6 2 18 0 25 -3 6 -5 1 -5 -13z"/>
<path d="M5410 3610 c0 -11 2 -20 4 -20 2 0 6 9 9 20 3 11 1 20 -4 20 -5 0 -9
-9 -9 -20z"/>
<path d="M5447 3607 c4 -20 0 -26 -16 -30 -20 -4 -20 -5 1 -3 24 1 37 31 20
48 -6 6 -8 1 -5 -15z"/>
<path d="M5520 3620 c0 -5 5 -10 11 -10 5 0 7 5 4 10 -3 6 -8 10 -11 10 -2 0
-4 -4 -4 -10z"/>
<path d="M5547 3596 c-4 -10 -5 -21 -2 -24 9 -9 17 6 13 25 -3 17 -4 17 -11
-1z"/>
<path d="M5500 3585 c0 -8 4 -15 10 -15 5 0 7 7 4 15 -4 8 -8 15 -10 15 -2 0
-4 -7 -4 -15z"/>
<path d="M5352 3570 c0 -14 2 -19 5 -12 2 6 2 18 0 25 -3 6 -5 1 -5 -13z"/>
<path d="M6360 3577 c0 -2 15 -16 33 -33 l32 -29 -29 33 c-28 30 -36 37 -36
29z"/>
<path d="M5602 3545 c0 -16 2 -22 5 -12 2 9 2 23 0 30 -3 6 -5 -1 -5 -18z"/>
<path d="M5352 3490 c0 -14 2 -19 5 -12 2 6 2 18 0 25 -3 6 -5 1 -5 -13z"/>
<path d="M5408 3473 c6 -2 18 -2 25 0 6 3 1 5 -13 5 -14 0 -19 -2 -12 -5z"/>
<path d="M5498 3473 c6 -2 18 -2 25 0 6 3 1 5 -13 5 -14 0 -19 -2 -12 -5z"/>
<path d="M5578 3473 c6 -2 18 -2 25 0 6 3 1 5 -13 5 -14 0 -19 -2 -12 -5z"/>
<path d="M6632 4834 c-12 -8 -22 -19 -22 -25 0 -5 9 0 20 11 23 23 33 24 61
10 23 -13 25 -53 3 -74 -8 -9 -11 -16 -5 -16 13 0 31 33 31 59 0 19 -34 51
-55 51 -6 0 -21 -7 -33 -16z"/>
<path d="M6495 4819 c-11 -16 -1 -19 13 -3 7 8 8 14 3 14 -5 0 -13 -5 -16 -11z"/>
<path d="M6540 4826 c0 -2 7 -7 16 -10 8 -3 12 -2 9 4 -6 10 -25 14 -25 6z"/>
<path d="M6562 4780 c-14 -23 -41 -26 -62 -7 -12 10 -12 9 -1 -5 18 -25 58
-23 71 3 15 27 8 34 -8 9z"/>
<path d="M6610 4771 c0 -10 29 -36 34 -30 1 2 -6 12 -16 22 -10 9 -18 13 -18
8z"/>
<path d="M6497 4682 c-22 -24 -21 -55 1 -75 34 -31 93 -16 91 23 0 9 -4 6 -9
-7 -11 -27 -60 -32 -80 -9 -15 19 -9 56 11 69 22 14 69 0 70 -21 0 -13 2 -13
6 -3 7 17 -23 41 -52 41 -12 0 -29 -8 -38 -18z"/>
<path d="M6639 4673 c-12 -16 -12 -17 1 -7 8 6 22 14 30 17 13 5 12 6 -1 6 -9
1 -23 -7 -30 -16z"/>
<path d="M6696 4667 c3 -10 9 -15 12 -12 3 3 0 11 -7 18 -10 9 -11 8 -5 -6z"/>
<path d="M6697 4625 c-8 -18 -38 -20 -57 -2 -12 10 -12 9 -1 -5 7 -10 21 -18
31 -18 18 0 47 27 38 36 -3 3 -8 -2 -11 -11z"/>
<path d="M6078 3328 c14 -14 16 -114 2 -123 -5 -3 -10 -11 -10 -18 0 -6 7 -2
15 9 24 32 18 144 -8 144 -7 0 -7 -4 1 -12z"/>
<path d="M6460 3304 c34 -7 108 -8 103 -1 -2 4 -30 6 -61 6 -31 -1 -50 -3 -42
-5z"/>
<path d="M6587 3303 c-3 -5 16 -7 41 -5 73 5 82 10 20 11 -31 0 -59 -2 -61 -6z"/>
<path d="M6410 3285 c-19 -22 -8 -25 13 -3 9 10 13 18 8 18 -5 0 -14 -7 -21
-15z"/>
<path d="M6726 3286 c18 -14 19 -32 24 -333 l6 -318 2 310 c2 267 0 314 -14
333 -8 12 -20 22 -26 22 -7 0 -3 -6 8 -14z"/>
<path d="M6394 2950 c0 -168 2 -236 3 -152 2 83 2 221 0 305 -1 83 -3 15 -3
-153z"/>
<path d="M5813 3200 c11 -7 53 -11 98 -11 46 0 79 -3 79 -9 0 -6 -28 -10 -64
-10 l-64 0 -16 -40 c-9 -22 -15 -55 -15 -73 1 -27 3 -24 9 14 14 83 21 89 104
89 66 0 74 -2 84 -22 6 -13 11 -17 11 -10 1 6 -8 21 -19 32 -11 11 -20 25 -20
30 0 6 -35 10 -84 10 -46 0 -93 3 -103 6 -17 5 -17 5 0 -6z"/>
<path d="M6025 3190 c3 -5 8 -10 11 -10 2 0 4 5 4 10 0 6 -5 10 -11 10 -5 0
-7 -4 -4 -10z"/>
<path d="M6557 3194 c-14 -15 -6 -34 14 -34 14 0 19 5 17 17 -3 18 -20 27 -31
17z"/>
<path d="M6041 3034 c0 -11 3 -14 6 -6 3 7 2 16 -1 19 -3 4 -6 -2 -5 -13z"/>
<path d="M5840 3010 c0 -6 15 -27 34 -46 37 -37 78 -45 112 -19 17 13 16 13
-13 3 -43 -16 -81 -2 -110 41 -13 19 -23 28 -23 21z"/>
<path d="M6022 2990 c-18 -29 -15 -38 4 -12 9 13 14 25 12 27 -2 2 -9 -5 -16
-15z"/>
<path d="M5380 2730 l0 -51 33 3 c31 3 32 5 32 48 0 43 -1 45 -32 48 l-33 3 0
-51z m53 25 c1 -5 -6 -11 -15 -13 -11 -2 -18 3 -18 13 0 17 30 18 33 0z m5
-42 c5 -17 -26 -29 -40 -15 -6 6 -7 15 -3 22 9 14 37 9 43 -7z"/>
<path d="M5480 2734 c-23 -54 -23 -54 -10 -54 6 0 10 7 10 15 0 21 47 19 59
-2 16 -27 13 -4 -5 44 -9 24 -20 43 -25 43 -4 0 -17 -21 -29 -46z m40 0 c0 -8
-7 -14 -15 -14 -17 0 -18 2 -9 24 7 18 24 12 24 -10z"/>
<path d="M5563 2773 c13 -3 17 -15 17 -50 0 -26 3 -43 7 -39 4 4 6 24 4 46 -2
33 1 39 21 43 13 2 3 4 -22 4 -25 1 -37 -1 -27 -4z"/>
<path d="M5640 2729 c0 -31 4 -48 10 -44 6 3 10 15 10 26 0 12 7 19 20 19 15
0 20 -7 20 -25 0 -14 5 -25 10 -25 6 0 10 23 10 50 0 28 -4 50 -10 50 -5 0
-10 -9 -10 -20 0 -13 -7 -20 -20 -20 -13 0 -20 7 -20 20 0 11 -4 20 -10 20 -5
0 -10 -23 -10 -51z"/>
<path d="M6740 2623 c0 -6 -12 -28 -26 -49 -15 -21 -19 -32 -10 -24 21 17 49
70 42 78 -3 3 -6 1 -6 -5z"/>
<path d="M6410 2601 c0 -6 4 -13 10 -16 6 -3 7 1 4 9 -7 18 -14 21 -14 7z"/>
<path d="M6434 2561 c7 -11 46 -35 46 -28 0 3 -12 12 -26 22 -15 9 -23 12 -20
6z"/>
<path d="M6548 2513 c18 -2 45 -2 60 0 15 2 0 4 -33 4 -33 0 -45 -2 -27 -4z"/>
<path d="M5284 3330 c-26 -10 -64 -57 -64 -79 1 -9 7 -2 14 14 19 45 39 58 53
36 10 -15 8 -20 -12 -29 -24 -11 -44 -56 -31 -69 3 -4 6 3 6 15 0 21 43 62 66
62 7 0 15 -8 17 -17 3 -11 5 -6 6 11 0 16 -2 26 -6 22 -4 -3 -12 4 -17 18 -9
19 -15 22 -32 16z m26 -20 c0 -5 -4 -10 -10 -10 -5 0 -10 5 -10 10 0 6 5 10
10 10 6 0 10 -4 10 -10z"/>
<path d="M5337 3333 c-4 -3 -7 -11 -7 -17 0 -6 4 -5 9 3 11 17 31 6 31 -17 0
-9 15 -24 32 -32 40 -19 53 -40 44 -73 -7 -31 -52 -57 -97 -57 -40 0 -119 45
-120 68 0 9 -3 12 -5 5 -7 -16 23 -61 50 -75 24 -13 116 -18 116 -6 0 4 7 5
15 2 16 -7 75 46 75 67 0 8 -6 5 -13 -6 -13 -16 -14 -15 -10 12 4 24 -1 35
-26 55 -16 14 -27 29 -23 33 4 5 0 6 -10 2 -11 -4 -18 1 -22 19 -6 23 -25 32
-39 17z"/>
<path d="M5393 3327 c2 -7 12 -12 22 -12 11 0 29 -15 42 -34 13 -19 23 -29 23
-23 0 18 -48 69 -70 75 -14 3 -20 1 -17 -6z"/>
<path d="M5360 3249 c0 -11 -4 -17 -10 -14 -5 3 -10 1 -10 -4 0 -6 7 -11 15
-11 9 0 15 9 15 25 0 14 -2 25 -5 25 -3 0 -5 -9 -5 -21z"/>
<path d="M2937 1643 c-4 -3 -7 -26 -7 -50 0 -49 16 -62 55 -45 21 10 23 16 18
49 -3 21 -11 41 -17 45 -14 10 -41 10 -49 1z m51 -25 c-7 -19 -38 -22 -38 -4
0 10 9 16 21 16 12 0 19 -5 17 -12z m2 -43 c0 -8 -9 -15 -20 -15 -11 0 -20 7
-20 15 0 8 9 15 20 15 11 0 20 -7 20 -15z"/>
<path d="M3027 1643 c-2 -5 -4 -28 -3 -53 1 -45 1 -45 39 -48 21 -2 37 1 37 7
0 6 -13 11 -30 11 -39 0 -41 27 -2 33 l27 4 -27 2 c-40 2 -37 31 3 31 17 0 28
4 24 10 -7 12 -62 14 -68 3z"/>
<path d="M3120 1595 c0 -52 2 -55 24 -55 31 0 56 25 56 55 0 30 -25 55 -56 55
-22 0 -24 -3 -24 -55z m60 0 c0 -31 -3 -35 -25 -35 -22 0 -25 4 -25 35 0 31 3
35 25 35 22 0 25 -4 25 -35z"/>
<path d="M3221 1593 c1 -32 4 -46 6 -30 5 34 26 35 48 1 19 -30 33 -26 14 4
-10 16 -10 23 -1 35 17 20 -9 47 -44 47 -23 0 -24 -3 -23 -57z m57 25 c-7 -20
-48 -23 -48 -4 0 11 9 16 26 16 16 0 24 -5 22 -12z"/>
<path d="M3323 1624 c-15 -24 -15 -29 -2 -53 18 -32 45 -38 70 -15 24 22 24
56 1 77 -26 24 -49 21 -69 -9z m65 -30 c2 -22 -2 -33 -14 -38 -22 -8 -44 11
-44 39 0 28 9 37 35 33 14 -2 21 -12 23 -34z"/>
<path d="M3437 1632 c-22 -24 -21 -55 1 -75 24 -22 45 -21 65 1 22 24 21 55
-1 75 -24 22 -45 21 -65 -1z m61 -33 c4 -34 -22 -57 -43 -39 -16 13 -20 51 -8
64 16 16 48 1 51 -25z"/>
<path d="M3537 1644 c-11 -11 -8 -94 3 -94 6 0 10 15 11 33 l1 32 9 -32 c14
-47 24 -47 40 0 l13 42 7 -45 6 -45 1 53 c2 39 -2 52 -12 52 -8 0 -17 -13 -21
-30 -7 -33 -25 -41 -25 -12 0 23 -23 55 -33 46z"/>
<path d="M5440 2290 c-22 -22 -25 -42 -10 -71 13 -23 52 -25 70 -4 14 17 0 21
-17 4 -21 -21 -45 -2 -41 33 2 25 8 34 26 36 12 2 22 -2 22 -9 0 -7 3 -9 6 -6
8 8 -14 37 -27 37 -5 0 -18 -9 -29 -20z"/>
<path d="M5620 2290 c-11 -11 -20 -29 -20 -39 0 -25 26 -51 50 -51 20 0 50 35
50 57 0 15 -36 53 -50 53 -5 0 -19 -9 -30 -20z m58 -31 c3 -29 -20 -54 -43
-45 -15 5 -21 57 -8 70 16 16 48 1 51 -25z"/>
<path d="M5733 2303 c-22 -8 -15 -43 11 -53 31 -12 41 -29 21 -36 -9 -4 -24 1
-35 11 -11 10 -20 13 -20 8 0 -20 30 -35 55 -29 36 9 33 41 -5 55 -42 14 -40
35 3 27 30 -5 31 -5 13 9 -21 16 -24 16 -43 8z"/>
<path d="M5532 2253 l-2 -53 33 1 c29 1 30 2 7 8 -21 6 -26 15 -31 51 l-6 45
-1 -52z"/>
<path d="M5810 2250 l0 -50 38 1 c36 1 36 2 7 8 -43 9 -45 39 -3 44 l33 4 -32
1 c-21 1 -33 7 -33 16 0 9 13 16 33 19 31 4 31 4 -5 5 l-38 2 0 -50z"/>
<path d="M5912 2293 c12 -3 18 -18 21 -51 l3 -47 2 47 c2 35 6 48 20 51 9 3
-1 5 -23 5 -22 0 -32 -2 -23 -5z"/>
<path d="M5317 1284 c-4 -4 -7 -27 -7 -51 0 -43 0 -43 35 -43 41 0 47 11 37
60 -6 27 -13 36 -33 38 -13 2 -28 0 -32 -4z m53 -24 c0 -5 -9 -10 -20 -10 -11
0 -20 5 -20 10 0 6 9 10 20 10 11 0 20 -4 20 -10z m0 -45 c0 -8 -9 -15 -20
-15 -11 0 -20 7 -20 15 0 8 9 15 20 15 11 0 20 -7 20 -15z"/>
<path d="M5410 1240 l0 -50 38 2 c36 1 36 1 5 5 -40 5 -46 33 -8 33 14 0 25 5
25 10 0 6 -11 10 -25 10 -14 0 -25 5 -25 10 0 6 14 10 30 10 17 0 30 5 30 10
0 6 -16 10 -35 10 l-35 0 0 -50z"/>
<path d="M5500 1240 c0 -48 1 -50 28 -50 35 0 52 16 52 52 0 29 -23 48 -59 48
-18 0 -21 -6 -21 -50z m65 10 c8 -25 -10 -50 -36 -50 -15 0 -19 7 -19 35 0 30
3 35 24 35 16 0 27 -7 31 -20z"/>
<path d="M5600 1240 c0 -27 5 -50 10 -50 6 0 10 9 10 20 0 11 6 20 14 20 8 0
18 -9 21 -20 3 -11 11 -20 16 -20 12 0 11 14 -3 28 -8 8 -8 15 2 27 18 21 -4
45 -41 45 -28 0 -29 -2 -29 -50z m58 18 c-7 -19 -38 -22 -38 -4 0 10 9 16 21
16 12 0 19 -5 17 -12z"/>
<path d="M5712 1278 c-14 -14 -16 -57 -3 -77 5 -7 21 -13 36 -13 31 0 45 16
45 54 0 40 -51 63 -78 36z m53 -11 c27 -20 13 -67 -20 -67 -29 0 -45 41 -25
65 15 18 21 19 45 2z"/>
<path d="M5821 1276 c-19 -23 -9 -78 15 -87 31 -11 64 15 64 51 0 43 -53 67
-79 36z m53 -12 c29 -29 13 -68 -25 -62 -27 3 -38 40 -19 64 16 18 25 18 44
-2z"/>
<path d="M5918 1240 c-1 -28 0 -50 5 -50 4 0 7 15 8 33 l1 32 10 -32 c14 -43
23 -42 39 5 l14 37 6 -40 c6 -39 6 -39 8 13 1 64 -16 67 -34 6 l-11 -39 -13
37 c-18 55 -29 54 -33 -2z"/>
<path d="M4200 4205 l0 -775 25 0 25 0 0 750 0 750 515 0 515 0 0 25 0 25
-540 0 -540 0 0 -775z"/>
<path d="M4862 4350 c-1 -53 -1 -54 11 -26 l13 29 22 -28 c12 -15 25 -26 27
-23 3 3 -5 17 -17 33 -19 25 -20 28 -5 37 10 5 17 14 17 20 0 6 -10 2 -23 -10
-29 -28 -35 -27 -40 1 -2 12 -5 -3 -5 -33z"/>
<path d="M4950 4350 c0 -27 5 -50 10 -50 6 0 10 23 10 50 0 28 -4 50 -10 50
-5 0 -10 -22 -10 -50z"/>
<path d="M5003 4388 c9 -7 18 -31 20 -53 l4 -40 1 47 c2 35 6 48 20 51 9 3 -1
5 -22 6 -34 1 -37 -1 -23 -11z"/>
<path d="M5078 4376 c-24 -54 36 -105 72 -61 14 17 0 21 -17 4 -19 -19 -43 -2
-43 31 0 35 22 49 47 29 14 -12 16 -12 11 1 -2 8 -17 16 -31 18 -21 3 -30 -3
-39 -22z"/>
<path d="M5183 4350 c0 -30 2 -43 4 -27 3 21 10 27 28 27 18 0 25 -6 28 -27 2
-16 4 -3 4 27 0 30 -2 45 -4 33 -3 -16 -11 -23 -28 -23 -17 0 -25 7 -28 23 -2
12 -4 -3 -4 -33z"/>
<path d="M5280 4350 l0 -50 38 2 c36 1 36 1 5 5 -24 3 -33 9 -33 23 0 14 9 20
33 23 l32 4 -32 1 c-21 1 -33 7 -33 16 0 9 13 16 33 19 31 4 31 4 -5 5 l-38 2
0 -50z"/>
<path d="M5370 4350 c0 -27 5 -50 10 -50 6 0 10 15 10 33 l0 32 21 -32 c12
-18 25 -33 30 -33 5 0 9 23 9 50 0 28 -4 50 -10 50 -5 0 -10 -15 -10 -32 l0
-33 -21 33 c-12 17 -25 32 -30 32 -5 0 -9 -22 -9 -50z"/>
<path d="M4848 3793 c7 -3 16 -2 19 1 4 3 -2 6 -13 5 -11 0 -14 -3 -6 -6z"/>
<path d="M4855 3769 c17 -4 98 -7 180 -6 83 0 141 1 130 3 -41 6 -339 9 -310
3z"/>
<path d="M4815 3618 l0 -153 169 -3 c93 -1 173 1 177 5 5 5 -70 7 -166 5
l-174 -3 -4 151 -3 150 1 -152z"/>
<path d="M5165 3740 c3 -5 8 -10 11 -10 2 0 4 5 4 10 0 6 -5 10 -11 10 -5 0
-7 -4 -4 -10z"/>
</g>
</svg>
